<svg viewBox="0 0 58.99 19.15" xmlns="http://www.w3.org/2000/svg"><g fill-rule="evenodd"><path d="m48 15.38v-1.67a.26.26 0 0 0 -.1-.2l-3.32-2.13a.16.16 0 0 1 -.08-.14v-.56a.19.19 0 0 1 .09-.15.17.17 0 0 1 .18 0l3.52 2.26a.23.23 0 0 0 .25 0l3.46-2.24a.17.17 0 0 1 .18 0 .19.19 0 0 1 .09.16v.55a.16.16 0 0 1 -.08.14l-3.32 2.12a.26.26 0 0 0 -.1.2v1.67a.17.17 0 0 1 -.18.17h-.47a.17.17 0 0 1 -.18-.17zm-16.93-5.06h1.8a2.09 2.09 0 0 1 2.13 2.08v1.15a2.09 2.09 0 0 1 -2.09 2.08h-1.8a2.08 2.08 0 0 1 -2.11-2.08v-1.15a2.08 2.08 0 0 1 2.08-2.08zm0 .86a1.22 1.22 0 0 0 -1.22 1.22v1.15a1.22 1.22 0 0 0 1.22 1.22h1.8a1.22 1.22 0 0 0 1.22-1.22v-1.15a1.22 1.22 0 0 0 -1.22-1.22zm22.85 4.4h4.9a.17.17 0 0 0 .17-.17v-.48a.18.18 0 0 0 -.17-.17h-4.1a.08.08 0 0 1 -.08-.06.07.07 0 0 1 0-.09l4-3.15a.56.56 0 0 0 .22-.56.6.6 0 0 0 -.37-.48.93.93 0 0 0 -.29-.05h-4.88a.17.17 0 0 0 -.17.17v.46a.17.17 0 0 0 .17.17h4.1a.08.08 0 0 1 .08.06.1.1 0 0 1 0 .1l-4 3.14a.6.6 0 0 0 -.23.57.59.59 0 0 0 .38.47.66.66 0 0 0 .28.05zm-30.06-.17v-2.49a.21.21 0 0 0 -.11-.19l-2.22-1.41a.21.21 0 0 0 -.23 0 .22.22 0 0 0 -.12.2v3a.18.18 0 0 1 -.17.17h-.48a.17.17 0 0 1 -.17-.17v-3.22a.91.91 0 0 1 .48-.82.93.93 0 0 1 .95 0l2.35 1.52a.28.28 0 0 0 .25 0l2.36-1.5a.92.92 0 0 1 1.43.78v3.23a.18.18 0 0 1 -.17.17h-.48a.17.17 0 0 1 -.17-.17v-3a.24.24 0 0 0 -.12-.2.23.23 0 0 0 -.24 0l-2.21 1.41a.21.21 0 0 0 -.11.19v2.49a.17.17 0 0 1 -.17.17h-.51a.16.16 0 0 1 -.17-.17zm15.4 0v-2.49a.21.21 0 0 0 -.11-.19l-2.21-1.41a.21.21 0 0 0 -.23 0 .22.22 0 0 0 -.12.2v3a.18.18 0 0 1 -.18.17h-.47a.18.18 0 0 1 -.18-.17v-3.22a.93.93 0 0 1 1.43-.78l2.36 1.48a.28.28 0 0 0 .25 0l2.35-1.5a.93.93 0 0 1 1 0 .92.92 0 0 1 .49.82v3.23a.18.18 0 0 1 -.18.17h-.47a.18.18 0 0 1 -.18-.17v-3a.22.22 0 0 0 -.12-.2.21.21 0 0 0 -.23 0l-2.22 1.41a.21.21 0 0 0 -.1.19v2.49a.17.17 0 0 1 -.18.17h-.47a.17.17 0 0 1 -.23-.2z" fill="#ba005d"/><path d="m2 17.24a6.68 6.68 0 0 0 3.08 1.76.84.84 0 0 0 .76-.18 8.94 8.94 0 0 0 2.16-2.82.23.23 0 0 0 0-.26.23.23 0 0 0 -.24-.09c-.86.2-2-.22-3.12-1.58a4.27 4.27 0 0 1 -.64-4.23 4.08 4.08 0 0 1 1.35 0 2.11 2.11 0 0 1 .39-1.46 2.11 2.11 0 0 1 1.34.69 4.74 4.74 0 0 1 .9-1 4.27 4.27 0 0 1 2.68 3.33c.27 1.74-.22 2.89-1 3.38a.8.8 0 0 0 -.35.48 10.68 10.68 0 0 1 -1.7 3.49.27.27 0 0 0 0 .26.26.26 0 0 0 .22.13 6.68 6.68 0 0 0 6.56-6.66v-1.06a6.68 6.68 0 0 0 -6.66-6.66h-1.07a6.68 6.68 0 0 0 -6.66 6.66v1a7.21 7.21 0 0 0 2 4.82z" fill="#ba005d"/><path d="m4.35 2.7a3.13 3.13 0 0 0 2.44 1.43 3.14 3.14 0 0 0 -.34-2.81c-1.65-2.49-3.73-1.13-2.1 1.38zm5.49 1.16a3.19 3.19 0 0 1 -2.84.32 3.15 3.15 0 0 1 1.47-2.44c2.53-1.61 3.87.48 1.37 2.12zm-.51 0c1.59-1 .73-2.37-.87-1.34a2 2 0 0 0 -.92 1.55 2 2 0 0 0 1.79-.21zm-4.47-1c-1.03-1.58.28-2.45 1.33-.86a2 2 0 0 1 .22 1.78 2 2 0 0 1 -1.55-.91z" fill="#efa903"/></g></svg>